# xmcd
#
# Track frame offsets:
#	150
#	11229
#	23196
#	32596
#	44486
#	56154
#	65884
#	77700
#	86731
#	99150
#
# Disc length: 1486
#
# Revision: 1
# Processed by: cddbd v1.5.1PL0 Copyright (c) Steve Scherf et al.
# Submitted via: MusicManager v6.0.0.0
# Normalized: r0:DSETVAR1
#
DISCID=8105cc0a
DTITLE=Various Artist - Party Pickin'
DYEAR=1900
DGENRE=country
TTITLE0=George Jones and Melba Montgomery - Party Pickin'
TTITLE1=George Jones and Melba Montgomery - The Day I Lose My Mind
TTITLE2=George Jones and Melba Montgomery - Living on Easy Street
TTITLE3=George Jones - From Here to the Door
TTITLE4=George Jones and Melba Montgomery - I'll Be Loving You
TTITLE5=George Jones and Melba Montgomery - Long Walk Off a Tall Rock
TTITLE6=George Jones and Melba Montgomery - We Must Have Been Out of Our Minds (Musicor)
TTITLE7=George Jones and Melba Montgomery - Everybody Ought to Sing a Song
TTITLE8=Melba Montgomery - They Bought the House Next Door
TTITLE9=George Jones and Melba Montgomery - Let's Live Together
EXTD=
EXTT0=
EXTT1=
EXTT2=
EXTT3=
EXTT4=
EXTT5=
EXTT6=
EXTT7=
EXTT8=
EXTT9=
PLAYORDER=
